<svg width="291" height="62" viewBox="0 0 291 62" fill="none" xmlns="http://www.w3.org/2000/svg">
<path d="M50 40C50 46.6304 47.3661 49.9893 42.6777 54.6777C37.9893 59.3661 31.6304 62 25 62C18.3696 62 12.0107 59.3661 7.32233 54.6777C2.63392 49.9893 1.00116e-06 43.6304 0 37L13.9585 37C13.9585 39.9284 15.1218 42.7368 17.1925 44.8075C19.2632 46.8782 22.0716 48.0415 25 48.0415C27.9284 48.0415 31 47.375 33.5 45.5C35.5 44 37.5 42.5 40 40H50Z" fill="white"/>
<path d="M0 37L13.9585 37C13.9585 37 13.9585 15 13.9585 13C13.9585 11 8.8 0.4 0 0V37Z" fill="white"/>
<path d="M50 32C50 25.3696 47.3661 22.0107 42.6777 17.3223C35.2065 9.85115 25.7428 9.0643 16 11.5C16 14 16 22.3075 16 26.5C25 20 33 23.5 40 32H50Z" fill="#57B76D"/>
<path d="M74.9 48.85C72.6333 48.85 70.6167 48.35 68.85 47.35C67.0833 46.35 65.6833 44.85 64.65 42.85C63.65 40.8167 63.15 38.25 63.15 35.15C63.15 32.0167 63.6667 29.45 64.7 27.45C65.7667 25.45 67.1833 23.9667 68.95 23C70.75 22 72.7333 21.5 74.9 21.5C77.5333 21.5 79.85 22.0667 81.85 23.2C83.8833 24.3333 85.4833 25.9167 86.65 27.95C87.85 29.9833 88.45 32.3833 88.45 35.15C88.45 37.9167 87.85 40.3167 86.65 42.35C85.4833 44.3833 83.8833 45.9833 81.85 47.15C79.85 48.2833 77.5333 48.85 74.9 48.85ZM60.1 48.5V11.4H66.35V28L65.85 35.1L66.05 42.2V48.5H60.1ZM74.2 43.5C75.7 43.5 77.0333 43.1667 78.2 42.5C79.4 41.8333 80.35 40.8667 81.05 39.6C81.75 38.3333 82.1 36.85 82.1 35.15C82.1 33.4167 81.75 31.9333 81.05 30.7C80.35 29.4333 79.4 28.4667 78.2 27.8C77.0333 27.1333 75.7 26.8 74.2 26.8C72.7 26.8 71.35 27.1333 70.15 27.8C68.95 28.4667 68 29.4333 67.3 30.7C66.6 31.9333 66.25 33.4167 66.25 35.15C66.25 36.85 66.6 38.3333 67.3 39.6C68 40.8667 68.95 41.8333 70.15 42.5C71.35 43.1667 72.7 43.5 74.2 43.5ZM106.927 48.85C103.961 48.85 101.361 48.2667 99.1273 47.1C96.9273 45.9 95.2107 44.2667 93.9773 42.2C92.7773 40.1333 92.1773 37.7833 92.1773 35.15C92.1773 32.4833 92.7607 30.1333 93.9273 28.1C95.1273 26.0333 96.7607 24.4167 98.8273 23.25C100.927 22.0833 103.311 21.5 105.977 21.5C108.577 21.5 110.894 22.0667 112.927 23.2C114.961 24.3333 116.561 25.9333 117.727 28C118.894 30.0667 119.477 32.5 119.477 35.3C119.477 35.5667 119.461 35.8667 119.427 36.2C119.427 36.5333 119.411 36.85 119.377 37.15H97.1273V33H116.077L113.627 34.3C113.661 32.7667 113.344 31.4167 112.677 30.25C112.011 29.0833 111.094 28.1667 109.927 27.5C108.794 26.8333 107.477 26.5 105.977 26.5C104.444 26.5 103.094 26.8333 101.927 27.5C100.794 28.1667 99.894 29.1 99.2273 30.3C98.594 31.4667 98.2773 32.85 98.2773 34.45V35.45C98.2773 37.05 98.644 38.4667 99.3773 39.7C100.111 40.9333 101.144 41.8833 102.477 42.55C103.811 43.2167 105.344 43.55 107.077 43.55C108.577 43.55 109.927 43.3167 111.127 42.85C112.327 42.3833 113.394 41.65 114.327 40.65L117.677 44.5C116.477 45.9 114.961 46.9833 113.127 47.75C111.327 48.4833 109.261 48.85 106.927 48.85ZM135.531 48.85C132.598 48.85 130.331 48.1 128.731 46.6C127.131 45.0667 126.331 42.8167 126.331 39.85V15.9H132.581V39.7C132.581 40.9667 132.898 41.95 133.531 42.65C134.198 43.35 135.114 43.7 136.281 43.7C137.681 43.7 138.848 43.3333 139.781 42.6L141.531 47.05C140.798 47.65 139.898 48.1 138.831 48.4C137.764 48.7 136.664 48.85 135.531 48.85ZM121.931 27V22H139.731V27H121.931Z" fill="white"/>
<path d="M158.422 48.75C155.822 48.75 153.489 48.1833 151.422 47.05C149.389 45.8833 147.789 44.3 146.622 42.3C145.456 40.2667 144.872 37.95 144.872 35.35C144.872 32.7167 145.456 30.4 146.622 28.4C147.789 26.4 149.389 24.8333 151.422 23.7C153.489 22.5667 155.822 22 158.422 22C160.656 22 162.672 22.4333 164.472 23.3C166.272 24.1667 167.689 25.4667 168.722 27.2L166.072 29C165.172 27.6667 164.056 26.6833 162.722 26.05C161.389 25.4167 159.939 25.1 158.372 25.1C156.506 25.1 154.822 25.5333 153.322 26.4C151.822 27.2333 150.639 28.4167 149.772 29.95C148.906 31.4833 148.472 33.2833 148.472 35.35C148.472 37.4167 148.906 39.2167 149.772 40.75C150.639 42.2833 151.822 43.4833 153.322 44.35C154.822 45.1833 156.506 45.6 158.372 45.6C159.939 45.6 161.389 45.2833 162.722 44.65C164.056 44.0167 165.172 43.05 166.072 41.75L168.722 43.55C167.689 45.25 166.272 46.55 164.472 47.45C162.672 48.3167 160.656 48.75 158.422 48.75ZM175.305 48.5V11.4H178.855V48.5H175.305ZM199.883 48.75C197.15 48.75 194.75 48.1833 192.683 47.05C190.617 45.8833 189 44.3 187.833 42.3C186.667 40.2667 186.083 37.95 186.083 35.35C186.083 32.75 186.633 30.45 187.733 28.45C188.867 26.45 190.4 24.8833 192.333 23.75C194.3 22.5833 196.5 22 198.933 22C201.4 22 203.583 22.5667 205.483 23.7C207.417 24.8 208.933 26.3667 210.033 28.4C211.133 30.4 211.683 32.7167 211.683 35.35C211.683 35.5167 211.667 35.7 211.633 35.9C211.633 36.0667 211.633 36.25 211.633 36.45H188.783V33.8H209.733L208.333 34.85C208.333 32.95 207.917 31.2667 207.083 29.8C206.283 28.3 205.183 27.1333 203.783 26.3C202.383 25.4667 200.767 25.05 198.933 25.05C197.133 25.05 195.517 25.4667 194.083 26.3C192.65 27.1333 191.533 28.3 190.733 29.8C189.933 31.3 189.533 33.0167 189.533 34.95V35.5C189.533 37.5 189.967 39.2667 190.833 40.8C191.733 42.3 192.967 43.4833 194.533 44.35C196.133 45.1833 197.95 45.6 199.983 45.6C201.583 45.6 203.067 45.3167 204.433 44.75C205.833 44.1833 207.033 43.3167 208.033 42.15L210.033 44.45C208.867 45.85 207.4 46.9167 205.633 47.65C203.9 48.3833 201.983 48.75 199.883 48.75ZM225.171 48.5L213.521 22.25H217.221L227.921 46.6H226.171L237.021 22.25H240.521L228.821 48.5H225.171ZM255.938 48.75C253.205 48.75 250.805 48.1833 248.738 47.05C246.671 45.8833 245.055 44.3 243.888 42.3C242.721 40.2667 242.138 37.95 242.138 35.35C242.138 32.75 242.688 30.45 243.788 28.45C244.921 26.45 246.455 24.8833 248.388 23.75C250.355 22.5833 252.555 22 254.988 22C257.455 22 259.638 22.5667 261.538 23.7C263.471 24.8 264.988 26.3667 266.088 28.4C267.188 30.4 267.738 32.7167 267.738 35.35C267.738 35.5167 267.721 35.7 267.688 35.9C267.688 36.0667 267.688 36.25 267.688 36.45H244.838V33.8H265.788L264.388 34.85C264.388 32.95 263.971 31.2667 263.138 29.8C262.338 28.3 261.238 27.1333 259.838 26.3C258.438 25.4667 256.821 25.05 254.988 25.05C253.188 25.05 251.571 25.4667 250.138 26.3C248.705 27.1333 247.588 28.3 246.788 29.8C245.988 31.3 245.588 33.0167 245.588 34.95V35.5C245.588 37.5 246.021 39.2667 246.888 40.8C247.788 42.3 249.021 43.4833 250.588 44.35C252.188 45.1833 254.005 45.6 256.038 45.6C257.638 45.6 259.121 45.3167 260.488 44.75C261.888 44.1833 263.088 43.3167 264.088 42.15L266.088 44.45C264.921 45.85 263.455 46.9167 261.688 47.65C259.955 48.3833 258.038 48.75 255.938 48.75ZM274.964 48.5V22.25H278.364V29.4L278.014 28.15C278.747 26.15 279.98 24.6333 281.714 23.6C283.447 22.5333 285.597 22 288.164 22V25.45C288.03 25.45 287.897 25.45 287.764 25.45C287.63 25.4167 287.497 25.4 287.364 25.4C284.597 25.4 282.43 26.25 280.864 27.95C279.297 29.6167 278.514 32 278.514 35.1V48.5H274.964Z" fill="#57B76D"/>
</svg>
